<svg width="418" height="501" viewBox="0 0 418 501" fill="none" xmlns="http://www.w3.org/2000/svg">
<path d="M196.144 1.07062C139.877 7.07062 89.2106 36.5373 54.544 83.4706C28.8106 118.271 17.0773 155.337 16.8106 201.737C16.6773 247.071 29.0773 285.337 55.2106 320.404C84.6773 360.004 126.411 386.137 177.611 397.337C195.744 401.337 234.944 401.604 254.944 397.871C316.944 386.404 368.677 347.204 397.077 290.404C424.544 235.204 424.544 170.937 397.077 113.737C385.877 90.6706 366.277 64.404 348.944 49.3373C306.944 12.804 251.344 -4.66272 196.144 1.07062ZM245.744 37.4706C249.611 41.204 233.477 54.404 212.011 65.0706C180.411 80.804 142.011 91.204 112.944 91.8706C98.0106 92.2706 94.0106 91.8706 94.944 90.404C95.4773 89.604 96.4106 89.4706 97.2106 89.8706C98.0106 90.404 98.2773 90.1373 97.8773 89.4706C96.6773 87.604 110.277 74.9373 122.811 66.1373C141.877 52.6706 169.344 41.4706 192.544 37.7373C204.544 35.8706 243.877 35.604 245.744 37.4706ZM270.544 43.7373C283.344 48.404 290.944 53.0706 292.011 56.9373C294.811 67.7373 259.611 102.271 225.344 122.671C200.411 137.337 167.744 152.137 136.144 162.937C116.011 169.737 90.544 176.404 89.2106 175.071C88.8106 174.671 89.0773 173.071 90.0106 171.737C92.144 168.271 92.0106 167.604 89.6106 168.537C88.144 169.204 87.8773 168.804 88.4106 167.204C89.0773 165.604 88.6773 165.204 86.8106 165.871C84.544 166.537 84.544 166.404 86.4106 164.804C87.4773 163.871 88.8106 161.871 89.344 160.404C90.2773 157.737 90.2773 157.737 88.2773 160.271C86.2773 162.937 85.6106 161.871 86.144 157.204C86.4106 156.271 85.8773 155.871 85.0773 156.404C84.2773 156.804 83.6106 158.004 83.6106 159.071C83.6106 160.137 82.944 161.337 82.0106 161.871C81.2106 162.404 80.944 162.271 81.344 161.471C82.8106 159.071 83.6106 150.404 82.2773 150.404C80.144 150.404 82.544 146.404 84.8106 146.271C86.0106 146.137 85.2106 145.737 82.944 145.204C79.6106 144.537 82.2773 143.471 98.944 138.671C123.744 131.471 149.744 121.337 173.077 109.737C209.211 91.604 244.011 64.404 255.077 45.604C256.944 42.404 258.811 39.7373 259.077 39.7373C259.344 39.7373 264.544 41.604 270.544 43.7373ZM311.611 65.0706C321.477 71.7373 338.277 88.6706 344.811 98.2706C351.344 108.137 351.477 117.604 345.344 130.537C321.744 181.071 249.744 231.737 158.011 262.937C138.411 269.471 136.277 270.004 140.011 267.204C141.611 266.004 141.877 265.071 141.077 264.404C140.277 264.004 139.611 264.271 139.611 264.937C139.611 267.204 136.011 266.671 135.077 264.404C134.677 263.337 134.944 262.404 135.477 262.404C136.144 262.404 137.077 263.204 137.344 264.004C137.744 265.071 138.144 264.804 138.144 263.337C138.277 262.137 137.344 261.071 136.277 261.071C135.211 261.071 134.277 260.537 134.277 259.737C134.277 259.071 135.344 258.804 136.677 259.204C138.411 259.871 138.544 259.737 137.077 258.671C136.011 257.871 135.744 256.671 136.277 255.604C136.811 254.537 136.011 255.071 134.411 256.804C132.811 258.404 130.944 259.471 130.144 259.071C128.411 257.871 128.677 254.404 130.677 254.404C131.477 254.404 130.811 253.204 129.077 251.871C126.677 250.004 126.277 249.204 127.744 248.537C128.811 248.137 128.144 248.137 126.277 248.671C123.344 249.337 123.211 249.204 124.811 247.204C125.877 246.004 126.277 244.671 125.744 244.137C125.344 243.737 124.944 244.137 124.944 245.071C124.944 246.004 124.544 246.404 124.011 246.004C123.611 245.471 122.277 245.871 121.077 246.804C119.211 248.271 119.077 248.137 120.944 245.737C122.011 244.271 123.611 242.671 124.277 242.137C125.077 241.471 124.677 241.071 123.344 241.071C122.144 241.071 120.944 241.871 120.544 242.671C120.144 244.004 119.477 244.004 118.144 242.537C116.944 241.337 116.944 241.071 118.011 241.604C118.944 242.137 119.611 241.737 119.611 240.537C119.611 239.337 120.277 238.404 121.211 238.404C122.011 238.404 122.411 238.004 122.011 237.604C121.477 237.204 119.744 237.871 117.877 239.071C116.011 240.271 114.144 240.671 113.877 240.137C113.477 239.471 120.011 236.004 128.411 232.537C156.011 220.804 188.011 202.137 214.944 182.004C230.011 170.671 265.344 134.804 275.477 120.404C286.011 105.471 299.344 78.5373 301.344 67.7373C302.144 63.3373 303.077 59.7373 303.344 59.7373C303.611 59.7373 307.344 62.1373 311.611 65.0706ZM366.277 132.004C376.277 153.471 380.944 173.204 380.944 194.004V205.337L374.144 213.871C353.077 240.404 303.877 267.737 248.277 283.604C229.877 288.937 226.411 289.071 233.611 284.137C244.811 276.671 275.344 250.404 289.477 236.271C320.011 205.871 345.477 166.537 356.411 132.671C358.411 126.271 360.411 121.071 360.677 121.071C360.944 121.071 363.477 126.004 366.277 132.004ZM378.944 235.337C371.877 266.937 356.411 294.004 332.811 316.404C320.411 327.871 299.611 341.471 296.144 340.137C294.544 339.604 294.144 339.737 294.811 340.804C296.411 343.337 292.277 342.671 288.677 339.737C286.811 338.404 284.944 337.604 284.411 338.004C284.011 338.404 283.611 338.004 283.611 337.071C283.611 335.737 283.211 335.604 282.144 336.671C280.677 338.137 273.877 337.337 274.944 335.737C275.344 335.204 274.677 334.271 273.477 333.871C271.877 333.204 271.611 333.737 272.144 336.137C272.544 337.737 271.877 336.937 270.544 334.404C268.677 330.671 267.611 329.737 264.944 330.137C262.011 330.671 261.877 330.404 263.611 328.137C265.344 326.004 265.344 325.871 263.477 327.337C262.277 328.271 260.811 328.537 260.277 328.004C259.611 327.471 259.477 328.004 259.877 329.204C260.411 330.404 260.011 331.337 258.811 331.337C257.877 331.337 257.344 330.804 257.744 330.271C258.144 329.604 257.744 327.871 256.811 326.137C255.344 323.337 255.211 323.337 253.477 325.737C252.411 327.071 251.611 327.604 251.611 326.804C251.611 326.004 250.811 325.337 250.011 325.471C243.211 325.737 245.344 324.004 261.744 315.604C303.477 294.137 329.211 275.737 358.944 245.737C370.677 234.004 380.544 224.404 380.811 224.671C381.077 224.804 380.144 229.604 378.944 235.337ZM124.944 251.737C124.944 252.404 124.677 253.071 124.411 253.071C124.011 253.071 123.344 252.404 122.944 251.737C122.544 250.937 122.811 250.404 123.477 250.404C124.277 250.404 124.944 250.937 124.944 251.737ZM268.944 332.271C268.944 332.671 268.411 333.337 267.611 333.737C266.944 334.137 266.277 333.871 266.277 333.204C266.277 332.404 266.944 331.737 267.611 331.737C268.411 331.737 268.944 332.004 268.944 332.271Z" fill="black"/>
<path d="M92.2773 171.737C91.8773 172.404 92.144 173.07 92.8106 173.07C93.6106 173.07 94.2773 172.404 94.2773 171.737C94.2773 170.937 94.0106 170.404 93.744 170.404C93.344 170.404 92.6773 170.937 92.2773 171.737Z" fill="black"/>
<path d="M288.144 336.671C288.411 338.004 288.944 338.804 289.611 338.671C290.144 338.404 291.211 338.937 291.744 340.004C292.411 340.937 292.944 341.071 292.944 340.271C292.944 339.471 291.744 337.737 290.411 336.537C287.877 334.271 287.877 334.271 288.144 336.671Z" fill="black"/>
<path d="M130.277 461.871C126.944 462.137 113.211 463.337 99.7439 464.537C78.4106 466.271 46.1439 470.004 31.6106 472.404C29.0772 472.804 24.8106 473.471 22.2772 473.871C19.7439 474.271 13.7439 475.871 8.94391 477.337C2.41057 479.337 0.143908 480.671 0.0105744 482.537C-0.389426 487.204 10.5439 490.537 35.3439 493.604C77.2106 498.804 103.611 500.271 161.611 500.271C217.611 500.271 247.744 498.271 286.277 492.404C311.477 488.537 328.411 483.071 327.344 479.337C325.744 474.004 294.544 466.937 258.677 463.604C244.144 462.271 141.477 460.937 130.277 461.871Z" fill="black"/>
</svg>
